<svg xmlns="http://www.w3.org/2000/svg" xmlns:xlink="http://www.w3.org/1999/xlink" width="48" zoomAndPan="magnify" viewBox="0 0 36 36.000001" height="48" preserveAspectRatio="xMidYMid meet" version="1.0"><path fill="#000000" d="M 9.316406 28.925781 L 9.316406 31.523438 L 11.050781 31.523438 L 11.050781 28.058594 L 10.183594 28.058594 C 9.707031 28.058594 9.316406 28.449219 9.316406 28.925781 Z M 9.316406 28.925781 " fill-opacity="1" fill-rule="nonzero"/><path fill="#000000" d="M 15.382812 28.058594 L 11.914062 28.058594 L 11.914062 31.523438 L 15.980469 31.515625 C 16.308594 31.515625 16.601562 31.332031 16.75 31.039062 L 17.503906 29.390625 L 16.125 26.375 Z M 15.382812 28.058594 " fill-opacity="1" fill-rule="nonzero"/><path fill="#000000" d="M 26.394531 28.308594 C 26.238281 28.152344 26.023438 28.058594 25.777344 28.058594 L 24.914062 28.058594 L 24.914062 31.523438 L 26.644531 31.523438 L 26.644531 28.925781 C 26.644531 28.679688 26.550781 28.464844 26.394531 28.308594 Z M 26.394531 28.308594 " fill-opacity="1" fill-rule="nonzero"/><path fill="#000000" d="M 19.367188 25.320312 L 22.875 17.660156 L 19.972656 17.660156 L 18.449219 21.101562 L 18.023438 22.054688 L 17.980469 22.175781 L 15.988281 17.660156 L 13.085938 17.660156 L 16.59375 25.320312 L 17.910156 28.195312 L 17.980469 28.351562 L 19.210938 31.039062 C 19.359375 31.332031 19.652344 31.515625 19.984375 31.515625 L 24.046875 31.523438 L 24.046875 28.058594 L 20.582031 28.058594 Z M 19.367188 25.320312 " fill-opacity="1" fill-rule="nonzero"/><path fill="#00bf63" d="M 18 1.734375 C 14.640625 1.734375 11.921875 4.453125 11.921875 7.8125 C 11.921875 12.367188 18 19.09375 18 19.09375 C 18 19.09375 24.074219 12.367188 24.074219 7.8125 C 24.074219 4.453125 21.359375 1.734375 18 1.734375 Z M 18 9.980469 C 16.800781 9.980469 15.828125 9.007812 15.828125 7.8125 C 15.828125 6.613281 16.800781 5.640625 18 5.640625 C 19.195312 5.640625 20.167969 6.613281 20.167969 7.8125 C 20.167969 9.007812 19.195312 9.980469 18 9.980469 Z M 18 9.980469 " fill-opacity="1" fill-rule="nonzero"/></svg>